<?xml version="1.0" encoding="UTF-8" standalone="no"?>
<!DOCTYPE svg PUBLIC "-//W3C//DTD SVG 1.1//EN"
 "http://www.w3.org/Graphics/SVG/1.1/DTD/svg11.dtd">
<!-- Generated by graphviz version 2.38.0 (20140413.2041)
 -->
<!-- Title: G Pages: 1 -->
<svg width="13059pt" height="268pt"
 viewBox="0.00 0.00 13058.97 267.98" xmlns="http://www.w3.org/2000/svg" xmlns:xlink="http://www.w3.org/1999/xlink">
<g id="graph0" class="graph" transform="scale(1 1) rotate(0) translate(7.992 259.992)">
<title>G</title>
<polygon fill="#000000" stroke="none" points="-7.992,7.992 -7.992,-259.992 13051,-259.992 13051,7.992 -7.992,7.992"/>
<!-- ../Lightbox/index -->
<g id="node1" class="node"><title>../Lightbox/index</title>
<ellipse fill="none" stroke="#c6c5fe" cx="762.142" cy="-162" rx="79.2814" ry="18"/>
<text text-anchor="middle" x="762.142" y="-158.849" font-family="Arial" font-size="14.00" fill="#c6c5fe">../Lightbox/index</text>
</g>
<!-- reducer -->
<g id="node2" class="node"><title>reducer</title>
<ellipse fill="none" stroke="#ff6c60" cx="792.142" cy="-90" rx="42.9353" ry="18"/>
<text text-anchor="middle" x="792.142" y="-86.8493" font-family="Arial" font-size="14.00" fill="#ff6c60">reducer</text>
</g>
<!-- ../Lightbox/index&#45;&gt;reducer -->
<g id="edge1" class="edge"><title>../Lightbox/index&#45;&gt;reducer</title>
<path fill="none" stroke="#757575" d="M769.404,-144.055C772.868,-135.973 777.09,-126.121 780.951,-117.112"/>
<polygon fill="#757575" stroke="#757575" points="784.224,-118.359 784.947,-107.789 777.79,-115.602 784.224,-118.359"/>
</g>
<!-- columnsWidth/constants -->
<g id="node10" class="node"><title>columnsWidth/constants</title>
<ellipse fill="none" stroke="#cfffac" cx="471.142" cy="-18" rx="112.779" ry="18"/>
<text text-anchor="middle" x="471.142" y="-14.8493" font-family="Arial" font-size="14.00" fill="#cfffac">columnsWidth/constants</text>
</g>
<!-- reducer&#45;&gt;columnsWidth/constants -->
<g id="edge19" class="edge"><title>reducer&#45;&gt;columnsWidth/constants</title>
<path fill="none" stroke="#757575" d="M755.005,-80.9017C703.832,-69.7423 610.525,-49.3951 544.889,-35.082"/>
<polygon fill="#757575" stroke="#757575" points="545.526,-31.6386 535.009,-32.9275 544.034,-38.4778 545.526,-31.6386"/>
</g>
<!-- columnsWidth/reducer -->
<g id="node12" class="node"><title>columnsWidth/reducer</title>
<ellipse fill="none" stroke="#cfffac" cx="706.142" cy="-18" rx="104.514" ry="18"/>
<text text-anchor="middle" x="706.142" y="-14.8493" font-family="Arial" font-size="14.00" fill="#cfffac">columnsWidth/reducer</text>
</g>
<!-- reducer&#45;&gt;columnsWidth/reducer -->
<g id="edge20" class="edge"><title>reducer&#45;&gt;columnsWidth/reducer</title>
<path fill="none" stroke="#757575" d="M773.056,-73.4647C761.771,-64.2794 747.264,-52.4714 734.644,-42.1993"/>
<polygon fill="#757575" stroke="#757575" points="736.641,-39.3122 726.676,-35.7139 732.222,-44.7411 736.641,-39.3122"/>
</g>
<!-- filter/index -->
<g id="node36" class="node"><title>filter/index</title>
<ellipse fill="none" stroke="#ff6c60" cx="286.142" cy="-18" rx="53.9272" ry="18"/>
<text text-anchor="middle" x="286.142" y="-14.8493" font-family="Arial" font-size="14.00" fill="#ff6c60">filter/index</text>
</g>
<!-- reducer&#45;&gt;filter/index -->
<g id="edge21" class="edge"><title>reducer&#45;&gt;filter/index</title>
<path fill="none" stroke="#757575" d="M750.146,-86.388C669.687,-80.5998 489.19,-64.8687 340.142,-36 337.125,-35.4157 334.04,-34.7643 330.946,-34.0667"/>
<polygon fill="#757575" stroke="#757575" points="331.647,-30.6356 321.107,-31.7066 330.014,-37.4425 331.647,-30.6356"/>
</g>
<!-- games/index -->
<g id="node48" class="node"><title>games/index</title>
<ellipse fill="none" stroke="#ff6c60" cx="893.142" cy="-18" rx="64.3885" ry="18"/>
<text text-anchor="middle" x="893.142" y="-14.8493" font-family="Arial" font-size="14.00" fill="#ff6c60">games/index</text>
</g>
<!-- reducer&#45;&gt;games/index -->
<g id="edge22" class="edge"><title>reducer&#45;&gt;games/index</title>
<path fill="none" stroke="#757575" d="M809.299,-73.1159C822.312,-63.3138 840.457,-50.6262 856.597,-40.0001"/>
<polygon fill="#757575" stroke="#757575" points="858.831,-42.7222 865.311,-34.3402 855.019,-36.8516 858.831,-42.7222"/>
</g>
<!-- sfilter/index -->
<g id="node51" class="node"><title>sfilter/index</title>
<ellipse fill="none" stroke="#ff6c60" cx="1034.14" cy="-18" rx="58.349" ry="18"/>
<text text-anchor="middle" x="1034.14" y="-14.8493" font-family="Arial" font-size="14.00" fill="#ff6c60">sfilter/index</text>
</g>
<!-- reducer&#45;&gt;sfilter/index -->
<g id="edge23" class="edge"><title>reducer&#45;&gt;sfilter/index</title>
<path fill="none" stroke="#757575" d="M824.64,-78.1393C864.677,-65.9497 932.997,-46.1438 980.752,-32.8504"/>
<polygon fill="#757575" stroke="#757575" points="981.911,-36.1613 990.613,-30.1177 980.042,-29.4155 981.911,-36.1613"/>
</g>
<!-- ../lib/FancyRangeFilterHelpers -->
<g id="node3" class="node"><title>../lib/FancyRangeFilterHelpers</title>
<ellipse fill="none" stroke="#cfffac" cx="1612.14" cy="-162" rx="137.499" ry="18"/>
<text text-anchor="middle" x="1612.14" y="-158.849" font-family="Arial" font-size="14.00" fill="#cfffac">../lib/FancyRangeFilterHelpers</text>
</g>
<!-- ../lib/TagsFinder -->
<g id="node4" class="node"><title>../lib/TagsFinder</title>
<ellipse fill="none" stroke="#cfffac" cx="2534.14" cy="-162" rx="77.0583" ry="18"/>
<text text-anchor="middle" x="2534.14" y="-158.849" font-family="Arial" font-size="14.00" fill="#cfffac">../lib/TagsFinder</text>
</g>
<!-- ../lib/apiRequester -->
<g id="node5" class="node"><title>../lib/apiRequester</title>
<ellipse fill="none" stroke="#c6c5fe" cx="2834.14" cy="-90" rx="86.9309" ry="18"/>
<text text-anchor="middle" x="2834.14" y="-86.8493" font-family="Arial" font-size="14.00" fill="#c6c5fe">../lib/apiRequester</text>
</g>
<!-- ../lib/loadingSpinner -->
<g id="node6" class="node"><title>../lib/loadingSpinner</title>
<ellipse fill="none" stroke="#cfffac" cx="2739.14" cy="-18" rx="93.5674" ry="18"/>
<text text-anchor="middle" x="2739.14" y="-14.8493" font-family="Arial" font-size="14.00" fill="#cfffac">../lib/loadingSpinner</text>
</g>
<!-- ../lib/apiRequester&#45;&gt;../lib/loadingSpinner -->
<g id="edge2" class="edge"><title>../lib/apiRequester&#45;&gt;../lib/loadingSpinner</title>
<path fill="none" stroke="#757575" d="M2811.63,-72.411C2799.18,-63.2373 2783.53,-51.7045 2769.96,-41.7054"/>
<polygon fill="#757575" stroke="#757575" points="2771.95,-38.8269 2761.82,-35.7125 2767.8,-44.4623 2771.95,-38.8269"/>
</g>
<!-- ../sources/config -->
<g id="node7" class="node"><title>../sources/config</title>
<ellipse fill="none" stroke="#cfffac" cx="2930.14" cy="-18" rx="79.2538" ry="18"/>
<text text-anchor="middle" x="2930.14" y="-14.8493" font-family="Arial" font-size="14.00" fill="#cfffac">../sources/config</text>
</g>
<!-- ../lib/apiRequester&#45;&gt;../sources/config -->
<g id="edge3" class="edge"><title>../lib/apiRequester&#45;&gt;../sources/config</title>
<path fill="none" stroke="#757575" d="M2856.89,-72.411C2869.57,-63.1703 2885.52,-51.536 2899.3,-41.4867"/>
<polygon fill="#757575" stroke="#757575" points="2901.54,-44.1897 2907.55,-35.4699 2897.41,-38.5337 2901.54,-44.1897"/>
</g>
<!-- ../lib/b64FilterGenerator -->
<g id="node8" class="node"><title>../lib/b64FilterGenerator</title>
<ellipse fill="none" stroke="#cfffac" cx="3029.14" cy="-162" rx="109.504" ry="18"/>
<text text-anchor="middle" x="3029.14" y="-158.849" font-family="Arial" font-size="14.00" fill="#cfffac">../lib/b64FilterGenerator</text>
</g>
<!-- ../sources/api -->
<g id="node9" class="node"><title>../sources/api</title>
<ellipse fill="none" stroke="#c6c5fe" cx="2834.14" cy="-162" rx="66.615" ry="18"/>
<text text-anchor="middle" x="2834.14" y="-158.849" font-family="Arial" font-size="14.00" fill="#c6c5fe">../sources/api</text>
</g>
<!-- ../sources/api&#45;&gt;../lib/apiRequester -->
<g id="edge4" class="edge"><title>../sources/api&#45;&gt;../lib/apiRequester</title>
<path fill="none" stroke="#757575" d="M2834.14,-143.697C2834.14,-135.983 2834.14,-126.712 2834.14,-118.112"/>
<polygon fill="#757575" stroke="#757575" points="2837.64,-118.104 2834.14,-108.104 2830.64,-118.104 2837.64,-118.104"/>
</g>
<!-- columnsWidth/lib/TableWidthCalculator -->
<g id="node11" class="node"><title>columnsWidth/lib/TableWidthCalculator</title>
<ellipse fill="none" stroke="#cfffac" cx="3284.14" cy="-234" rx="173.77" ry="18"/>
<text text-anchor="middle" x="3284.14" y="-230.849" font-family="Arial" font-size="14.00" fill="#cfffac">columnsWidth/lib/TableWidthCalculator</text>
</g>
<!-- columnsWidth/selectors -->
<g id="node13" class="node"><title>columnsWidth/selectors</title>
<ellipse fill="none" stroke="#cfffac" cx="3586.14" cy="-234" rx="110.025" ry="18"/>
<text text-anchor="middle" x="3586.14" y="-230.849" font-family="Arial" font-size="14.00" fill="#cfffac">columnsWidth/selectors</text>
</g>
<!-- config/autoTitleDefinitions -->
<g id="node14" class="node"><title>config/autoTitleDefinitions</title>
<ellipse fill="none" stroke="#cfffac" cx="3833.14" cy="-234" rx="118.128" ry="18"/>
<text text-anchor="middle" x="3833.14" y="-230.849" font-family="Arial" font-size="14.00" fill="#cfffac">config/autoTitleDefinitions</text>
</g>
<!-- config/defaultFilter -->
<g id="node15" class="node"><title>config/defaultFilter</title>
<ellipse fill="none" stroke="#cfffac" cx="4057.14" cy="-234" rx="87.5199" ry="18"/>
<text text-anchor="middle" x="4057.14" y="-230.849" font-family="Arial" font-size="14.00" fill="#cfffac">config/defaultFilter</text>
</g>
<!-- config/enumColumns -->
<g id="node16" class="node"><title>config/enumColumns</title>
<ellipse fill="none" stroke="#cfffac" cx="4262.14" cy="-234" rx="99.0608" ry="18"/>
<text text-anchor="middle" x="4262.14" y="-230.849" font-family="Arial" font-size="14.00" fill="#cfffac">config/enumColumns</text>
</g>
<!-- config/filtersDefinitions -->
<g id="node17" class="node"><title>config/filtersDefinitions</title>
<ellipse fill="none" stroke="#cfffac" cx="4484.14" cy="-234" rx="105.072" ry="18"/>
<text text-anchor="middle" x="4484.14" y="-230.849" font-family="Arial" font-size="14.00" fill="#cfffac">config/filtersDefinitions</text>
</g>
<!-- config/filtersOptions -->
<g id="node18" class="node"><title>config/filtersOptions</title>
<ellipse fill="none" stroke="#cfffac" cx="4701.14" cy="-234" rx="93.5306" ry="18"/>
<text text-anchor="middle" x="4701.14" y="-230.849" font-family="Arial" font-size="14.00" fill="#cfffac">config/filtersOptions</text>
</g>
<!-- config/filtersSectionsDefinitions -->
<g id="node19" class="node"><title>config/filtersSectionsDefinitions</title>
<ellipse fill="none" stroke="#cfffac" cx="4954.14" cy="-234" rx="141.352" ry="18"/>
<text text-anchor="middle" x="4954.14" y="-230.849" font-family="Arial" font-size="14.00" fill="#cfffac">config/filtersSectionsDefinitions</text>
</g>
<!-- config/filtersSectionsDefinitionsExtra -->
<g id="node20" class="node"><title>config/filtersSectionsDefinitionsExtra</title>
<ellipse fill="none" stroke="#cfffac" cx="5276.14" cy="-234" rx="163.336" ry="18"/>
<text text-anchor="middle" x="5276.14" y="-230.849" font-family="Arial" font-size="14.00" fill="#cfffac">config/filtersSectionsDefinitionsExtra</text>
</g>
<!-- config/filtersSectionsFlatSort -->
<g id="node21" class="node"><title>config/filtersSectionsFlatSort</title>
<ellipse fill="none" stroke="#cfffac" cx="5587.14" cy="-234" rx="130.341" ry="18"/>
<text text-anchor="middle" x="5587.14" y="-230.849" font-family="Arial" font-size="14.00" fill="#cfffac">config/filtersSectionsFlatSort</text>
</g>
<!-- filter/components/filters/BooleanFilter -->
<g id="node22" class="node"><title>filter/components/filters/BooleanFilter</title>
<ellipse fill="none" stroke="#cfffac" cx="5901.14" cy="-234" rx="165.572" ry="18"/>
<text text-anchor="middle" x="5901.14" y="-230.849" font-family="Arial" font-size="14.00" fill="#cfffac">filter/components/filters/BooleanFilter</text>
</g>
<!-- filter/components/filters/FancyRangeFilter -->
<g id="node23" class="node"><title>filter/components/filters/FancyRangeFilter</title>
<ellipse fill="none" stroke="#c6c5fe" cx="1161.14" cy="-234" rx="184.762" ry="18"/>
<text text-anchor="middle" x="1161.14" y="-230.849" font-family="Arial" font-size="14.00" fill="#c6c5fe">filter/components/filters/FancyRangeFilter</text>
</g>
<!-- filter/components/filters/FancyRangeFilter&#45;&gt;../lib/FancyRangeFilterHelpers -->
<g id="edge5" class="edge"><title>filter/components/filters/FancyRangeFilter&#45;&gt;../lib/FancyRangeFilterHelpers</title>
<path fill="none" stroke="#757575" d="M1254.86,-218.453C1331.68,-206.531 1439.92,-189.73 1517.09,-177.752"/>
<polygon fill="#757575" stroke="#757575" points="1517.95,-181.161 1527.3,-176.169 1516.88,-174.244 1517.95,-181.161"/>
</g>
<!-- filter/components/filters/FancyRangeFilterBar -->
<g id="node24" class="node"><title>filter/components/filters/FancyRangeFilterBar</title>
<ellipse fill="none" stroke="#cfffac" cx="6284.14" cy="-234" rx="199.088" ry="18"/>
<text text-anchor="middle" x="6284.14" y="-230.849" font-family="Arial" font-size="14.00" fill="#cfffac">filter/components/filters/FancyRangeFilterBar</text>
</g>
<!-- filter/components/filters/FancyRangeFilterLabel -->
<g id="node25" class="node"><title>filter/components/filters/FancyRangeFilterLabel</title>
<ellipse fill="none" stroke="#cfffac" cx="6709.14" cy="-234" rx="207.872" ry="18"/>
<text text-anchor="middle" x="6709.14" y="-230.849" font-family="Arial" font-size="14.00" fill="#cfffac">filter/components/filters/FancyRangeFilterLabel</text>
</g>
<!-- filter/components/filters/FancyRangeFilterMappedSensor -->
<g id="node26" class="node"><title>filter/components/filters/FancyRangeFilterMappedSensor</title>
<ellipse fill="none" stroke="#c6c5fe" cx="1612.14" cy="-234" rx="248.574" ry="18"/>
<text text-anchor="middle" x="1612.14" y="-230.849" font-family="Arial" font-size="14.00" fill="#c6c5fe">filter/components/filters/FancyRangeFilterMappedSensor</text>
</g>
<!-- filter/components/filters/FancyRangeFilterMappedSensor&#45;&gt;../lib/FancyRangeFilterHelpers -->
<g id="edge6" class="edge"><title>filter/components/filters/FancyRangeFilterMappedSensor&#45;&gt;../lib/FancyRangeFilterHelpers</title>
<path fill="none" stroke="#757575" d="M1612.14,-215.697C1612.14,-207.983 1612.14,-198.712 1612.14,-190.112"/>
<polygon fill="#757575" stroke="#757575" points="1615.64,-190.104 1612.14,-180.104 1608.64,-190.104 1615.64,-190.104"/>
</g>
<!-- filter/components/filters/FancyRangeFilterSensor -->
<g id="node27" class="node"><title>filter/components/filters/FancyRangeFilterSensor</title>
<ellipse fill="none" stroke="#c6c5fe" cx="2093.14" cy="-234" rx="214.472" ry="18"/>
<text text-anchor="middle" x="2093.14" y="-230.849" font-family="Arial" font-size="14.00" fill="#c6c5fe">filter/components/filters/FancyRangeFilterSensor</text>
</g>
<!-- filter/components/filters/FancyRangeFilterSensor&#45;&gt;../lib/FancyRangeFilterHelpers -->
<g id="edge7" class="edge"><title>filter/components/filters/FancyRangeFilterSensor&#45;&gt;../lib/FancyRangeFilterHelpers</title>
<path fill="none" stroke="#757575" d="M1991.13,-218.155C1908.27,-206.096 1792.14,-189.196 1710.33,-177.289"/>
<polygon fill="#757575" stroke="#757575" points="1710.68,-173.803 1700.28,-175.826 1709.67,-180.73 1710.68,-173.803"/>
</g>
<!-- filter/components/filters/NullFilter -->
<g id="node28" class="node"><title>filter/components/filters/NullFilter</title>
<ellipse fill="none" stroke="#cfffac" cx="7082.14" cy="-234" rx="147.375" ry="18"/>
<text text-anchor="middle" x="7082.14" y="-230.849" font-family="Arial" font-size="14.00" fill="#cfffac">filter/components/filters/NullFilter</text>
</g>
<!-- filter/components/filters/NumberFilter -->
<g id="node29" class="node"><title>filter/components/filters/NumberFilter</title>
<ellipse fill="none" stroke="#cfffac" cx="7412.14" cy="-234" rx="164.937" ry="18"/>
<text text-anchor="middle" x="7412.14" y="-230.849" font-family="Arial" font-size="14.00" fill="#cfffac">filter/components/filters/NumberFilter</text>
</g>
<!-- filter/components/filters/RangeFilter -->
<g id="node30" class="node"><title>filter/components/filters/RangeFilter</title>
<ellipse fill="none" stroke="#cfffac" cx="7754.14" cy="-234" rx="158.944" ry="18"/>
<text text-anchor="middle" x="7754.14" y="-230.849" font-family="Arial" font-size="14.00" fill="#cfffac">filter/components/filters/RangeFilter</text>
</g>
<!-- filter/components/filters/TagsFilter -->
<g id="node31" class="node"><title>filter/components/filters/TagsFilter</title>
<ellipse fill="none" stroke="#cfffac" cx="8082.14" cy="-234" rx="151.218" ry="18"/>
<text text-anchor="middle" x="8082.14" y="-230.849" font-family="Arial" font-size="14.00" fill="#cfffac">filter/components/filters/TagsFilter</text>
</g>
<!-- filter/components/filters/TagsFilter/SelectedTags -->
<g id="node32" class="node"><title>filter/components/filters/TagsFilter/SelectedTags</title>
<ellipse fill="none" stroke="#cfffac" cx="8461.14" cy="-234" rx="210.098" ry="18"/>
<text text-anchor="middle" x="8461.14" y="-230.849" font-family="Arial" font-size="14.00" fill="#cfffac">filter/components/filters/TagsFilter/SelectedTags</text>
</g>
<!-- filter/components/filters/TagsFilter/TagsSelector -->
<g id="node33" class="node"><title>filter/components/filters/TagsFilter/TagsSelector</title>
<ellipse fill="none" stroke="#c6c5fe" cx="2534.14" cy="-234" rx="208.393" ry="18"/>
<text text-anchor="middle" x="2534.14" y="-230.849" font-family="Arial" font-size="14.00" fill="#c6c5fe">filter/components/filters/TagsFilter/TagsSelector</text>
</g>
<!-- filter/components/filters/TagsFilter/TagsSelector&#45;&gt;../lib/TagsFinder -->
<g id="edge8" class="edge"><title>filter/components/filters/TagsFilter/TagsSelector&#45;&gt;../lib/TagsFinder</title>
<path fill="none" stroke="#757575" d="M2534.14,-215.697C2534.14,-207.983 2534.14,-198.712 2534.14,-190.112"/>
<polygon fill="#757575" stroke="#757575" points="2537.64,-190.104 2534.14,-180.104 2530.64,-190.104 2537.64,-190.104"/>
</g>
<!-- filter/components/filters/TextFilter -->
<g id="node34" class="node"><title>filter/components/filters/TextFilter</title>
<ellipse fill="none" stroke="#cfffac" cx="8838.14" cy="-234" rx="148.473" ry="18"/>
<text text-anchor="middle" x="8838.14" y="-230.849" font-family="Arial" font-size="14.00" fill="#cfffac">filter/components/filters/TextFilter</text>
</g>
<!-- filter/components/toggles/BaseToggle -->
<g id="node35" class="node"><title>filter/components/toggles/BaseToggle</title>
<ellipse fill="none" stroke="#cfffac" cx="9172.14" cy="-234" rx="167.265" ry="18"/>
<text text-anchor="middle" x="9172.14" y="-230.849" font-family="Arial" font-size="14.00" fill="#cfffac">filter/components/toggles/BaseToggle</text>
</g>
<!-- filter/index&#45;&gt;reducer -->
<g id="edge9" class="edge"><title>filter/index&#45;&gt;reducer</title>
<path fill="none" stroke="#757575" d="M328.594,-29.0826C338.329,-31.621 348.577,-34.1474 358.142,-36 495.243,-62.5547 658.952,-77.9935 740.65,-84.8028"/>
<polygon fill="#757575" stroke="#757575" points="740.42,-88.2956 750.674,-85.6293 740.995,-81.3193 740.42,-88.2956"/>
</g>
<!-- filter/reducer -->
<g id="node37" class="node"><title>filter/reducer</title>
<ellipse fill="none" stroke="#c6c5fe" cx="3029.14" cy="-234" rx="63.2718" ry="18"/>
<text text-anchor="middle" x="3029.14" y="-230.849" font-family="Arial" font-size="14.00" fill="#c6c5fe">filter/reducer</text>
</g>
<!-- filter/reducer&#45;&gt;../lib/b64FilterGenerator -->
<g id="edge10" class="edge"><title>filter/reducer&#45;&gt;../lib/b64FilterGenerator</title>
<path fill="none" stroke="#757575" d="M3029.14,-215.697C3029.14,-207.983 3029.14,-198.712 3029.14,-190.112"/>
<polygon fill="#757575" stroke="#757575" points="3032.64,-190.104 3029.14,-180.104 3025.64,-190.104 3032.64,-190.104"/>
</g>
<!-- games/components/DataTableBatch -->
<g id="node38" class="node"><title>games/components/DataTableBatch</title>
<ellipse fill="none" stroke="#c6c5fe" cx="162.142" cy="-90" rx="162.284" ry="18"/>
<text text-anchor="middle" x="162.142" y="-86.8493" font-family="Arial" font-size="14.00" fill="#c6c5fe">games/components/DataTableBatch</text>
</g>
<!-- games/components/DataTableBatch&#45;&gt;filter/index -->
<g id="edge11" class="edge"><title>games/components/DataTableBatch&#45;&gt;filter/index</title>
<path fill="none" stroke="#757575" d="M191.843,-72.2333C209.576,-62.2226 232.2,-49.451 250.843,-38.9269"/>
<polygon fill="#757575" stroke="#757575" points="252.648,-41.927 259.636,-33.9631 249.207,-35.8312 252.648,-41.927"/>
</g>
<!-- games/components/columns/BooleanColumn -->
<g id="node39" class="node"><title>games/components/columns/BooleanColumn</title>
<ellipse fill="none" stroke="#cfffac" cx="9558.14" cy="-234" rx="200.241" ry="18"/>
<text text-anchor="middle" x="9558.14" y="-230.849" font-family="Arial" font-size="14.00" fill="#cfffac">games/components/columns/BooleanColumn</text>
</g>
<!-- games/components/columns/ImagesColumn -->
<g id="node40" class="node"><title>games/components/columns/ImagesColumn</title>
<ellipse fill="none" stroke="#c6c5fe" cx="762.142" cy="-234" rx="196.88" ry="18"/>
<text text-anchor="middle" x="762.142" y="-230.849" font-family="Arial" font-size="14.00" fill="#c6c5fe">games/components/columns/ImagesColumn</text>
</g>
<!-- games/components/columns/ImagesColumn&#45;&gt;../Lightbox/index -->
<g id="edge12" class="edge"><title>games/components/columns/ImagesColumn&#45;&gt;../Lightbox/index</title>
<path fill="none" stroke="#757575" d="M762.142,-215.697C762.142,-207.983 762.142,-198.712 762.142,-190.112"/>
<polygon fill="#757575" stroke="#757575" points="765.642,-190.104 762.142,-180.104 758.642,-190.104 765.642,-190.104"/>
</g>
<!-- games/components/columns/LinkColumn -->
<g id="node41" class="node"><title>games/components/columns/LinkColumn</title>
<ellipse fill="none" stroke="#cfffac" cx="9959.14" cy="-234" rx="183.152" ry="18"/>
<text text-anchor="middle" x="9959.14" y="-230.849" font-family="Arial" font-size="14.00" fill="#cfffac">games/components/columns/LinkColumn</text>
</g>
<!-- games/components/columns/PriceColumn -->
<g id="node42" class="node"><title>games/components/columns/PriceColumn</title>
<ellipse fill="none" stroke="#cfffac" cx="10347.1" cy="-234" rx="187.016" ry="18"/>
<text text-anchor="middle" x="10347.1" y="-230.849" font-family="Arial" font-size="14.00" fill="#cfffac">games/components/columns/PriceColumn</text>
</g>
<!-- games/components/columns/RatioColumn -->
<g id="node43" class="node"><title>games/components/columns/RatioColumn</title>
<ellipse fill="none" stroke="#cfffac" cx="10740.1" cy="-234" rx="187.574" ry="18"/>
<text text-anchor="middle" x="10740.1" y="-230.849" font-family="Arial" font-size="14.00" fill="#cfffac">games/components/columns/RatioColumn</text>
</g>
<!-- games/components/columns/RawColumn -->
<g id="node44" class="node"><title>games/components/columns/RawColumn</title>
<ellipse fill="none" stroke="#cfffac" cx="11130.1" cy="-234" rx="184.78" ry="18"/>
<text text-anchor="middle" x="11130.1" y="-230.849" font-family="Arial" font-size="14.00" fill="#cfffac">games/components/columns/RawColumn</text>
</g>
<!-- games/components/columns/SystemReqColumn -->
<g id="node45" class="node"><title>games/components/columns/SystemReqColumn</title>
<ellipse fill="none" stroke="#cfffac" cx="11547.1" cy="-234" rx="214.481" ry="18"/>
<text text-anchor="middle" x="11547.1" y="-230.849" font-family="Arial" font-size="14.00" fill="#cfffac">games/components/columns/SystemReqColumn</text>
</g>
<!-- games/components/columns/TagsColumn -->
<g id="node46" class="node"><title>games/components/columns/TagsColumn</title>
<ellipse fill="none" stroke="#cfffac" cx="11965.1" cy="-234" rx="185.888" ry="18"/>
<text text-anchor="middle" x="11965.1" y="-230.849" font-family="Arial" font-size="14.00" fill="#cfffac">games/components/columns/TagsColumn</text>
</g>
<!-- games/components/columns/TimeAgoColumn -->
<g id="node47" class="node"><title>games/components/columns/TimeAgoColumn</title>
<ellipse fill="none" stroke="#cfffac" cx="12372.1" cy="-234" rx="203.29" ry="18"/>
<text text-anchor="middle" x="12372.1" y="-230.849" font-family="Arial" font-size="14.00" fill="#cfffac">games/components/columns/TimeAgoColumn</text>
</g>
<!-- games/index&#45;&gt;reducer -->
<g id="edge13" class="edge"><title>games/index&#45;&gt;reducer</title>
<path fill="none" stroke="#757575" d="M875.385,-35.3346C861.734,-45.5867 842.684,-58.859 826.188,-69.6394"/>
<polygon fill="#757575" stroke="#757575" points="823.851,-66.9814 817.336,-75.3371 827.639,-72.8674 823.851,-66.9814"/>
</g>
<!-- games/reducer -->
<g id="node49" class="node"><title>games/reducer</title>
<ellipse fill="none" stroke="#c6c5fe" cx="2834.14" cy="-234" rx="73.7332" ry="18"/>
<text text-anchor="middle" x="2834.14" y="-230.849" font-family="Arial" font-size="14.00" fill="#c6c5fe">games/reducer</text>
</g>
<!-- games/reducer&#45;&gt;../sources/api -->
<g id="edge14" class="edge"><title>games/reducer&#45;&gt;../sources/api</title>
<path fill="none" stroke="#757575" d="M2834.14,-215.697C2834.14,-207.983 2834.14,-198.712 2834.14,-190.112"/>
<polygon fill="#757575" stroke="#757575" points="2837.64,-190.104 2834.14,-180.104 2830.64,-190.104 2837.64,-190.104"/>
</g>
<!-- index -->
<g id="node50" class="node"><title>index</title>
<ellipse fill="none" stroke="#c6c5fe" cx="893.142" cy="-162" rx="33.0903" ry="18"/>
<text text-anchor="middle" x="893.142" y="-158.849" font-family="Arial" font-size="14.00" fill="#c6c5fe">index</text>
</g>
<!-- index&#45;&gt;reducer -->
<g id="edge17" class="edge"><title>index&#45;&gt;reducer</title>
<path fill="none" stroke="#757575" d="M873.188,-147.17C858.501,-136.991 838.293,-122.986 821.73,-111.507"/>
<polygon fill="#757575" stroke="#757575" points="823.662,-108.587 813.45,-105.768 819.675,-114.341 823.662,-108.587"/>
</g>
<!-- index&#45;&gt;filter/index -->
<g id="edge15" class="edge"><title>index&#45;&gt;filter/index</title>
<path fill="none" stroke="#757575" d="M867.92,-150.231C862.142,-147.988 855.98,-145.77 850.142,-144 632.161,-77.9045 570.506,-89.6888 349.142,-36 344.814,-34.9503 340.329,-33.8221 335.838,-32.6642"/>
<polygon fill="#757575" stroke="#757575" points="336.616,-29.2499 326.056,-30.1011 334.842,-36.0213 336.616,-29.2499"/>
</g>
<!-- index&#45;&gt;games/index -->
<g id="edge16" class="edge"><title>index&#45;&gt;games/index</title>
<path fill="none" stroke="#757575" d="M893.142,-143.871C893.142,-119.67 893.142,-75.2108 893.142,-46.3932"/>
<polygon fill="#757575" stroke="#757575" points="896.642,-46.1892 893.142,-36.1893 889.642,-46.1893 896.642,-46.1892"/>
</g>
<!-- index&#45;&gt;sfilter/index -->
<g id="edge18" class="edge"><title>index&#45;&gt;sfilter/index</title>
<path fill="none" stroke="#757575" d="M908.231,-145.804C932.752,-121.109 981.433,-72.0824 1010.56,-42.7528"/>
<polygon fill="#757575" stroke="#757575" points="1013.3,-44.9554 1017.86,-35.3932 1008.33,-40.0231 1013.3,-44.9554"/>
</g>
<!-- sfilter/index&#45;&gt;reducer -->
<g id="edge24" class="edge"><title>sfilter/index&#45;&gt;reducer</title>
<path fill="none" stroke="#757575" d="M995.768,-31.6432C952.77,-44.6405 883.329,-64.7122 837.64,-77.3386"/>
<polygon fill="#757575" stroke="#757575" points="836.701,-73.9668 827.986,-79.992 838.556,-80.7165 836.701,-73.9668"/>
</g>
<!-- lib/gamesQueryGenerator -->
<g id="node52" class="node"><title>lib/gamesQueryGenerator</title>
<ellipse fill="none" stroke="#cfffac" cx="12712.1" cy="-234" rx="119.358" ry="18"/>
<text text-anchor="middle" x="12712.1" y="-230.849" font-family="Arial" font-size="14.00" fill="#cfffac">lib/gamesQueryGenerator</text>
</g>
<!-- lib/generateAutoTitle -->
<g id="node53" class="node"><title>lib/generateAutoTitle</title>
<ellipse fill="none" stroke="#cfffac" cx="12946.1" cy="-234" rx="96.6929" ry="18"/>
<text text-anchor="middle" x="12946.1" y="-230.849" font-family="Arial" font-size="14.00" fill="#cfffac">lib/generateAutoTitle</text>
</g>
<!-- sfilter/reducer -->
<g id="node54" class="node"><title>sfilter/reducer</title>
<ellipse fill="none" stroke="#c6c5fe" cx="410.142" cy="-90" rx="67.6944" ry="18"/>
<text text-anchor="middle" x="410.142" y="-86.8493" font-family="Arial" font-size="14.00" fill="#c6c5fe">sfilter/reducer</text>
</g>
<!-- sfilter/reducer&#45;&gt;filter/index -->
<g id="edge25" class="edge"><title>sfilter/reducer&#45;&gt;filter/index</title>
<path fill="none" stroke="#757575" d="M382.622,-73.4647C364.513,-63.2419 340.65,-49.7706 321.187,-38.7834"/>
<polygon fill="#757575" stroke="#757575" points="322.74,-35.6411 312.311,-33.773 319.299,-41.7369 322.74,-35.6411"/>
</g>
</g>
</svg>
