<?xml version="1.0" encoding="UTF-8" standalone="no"?>
<!DOCTYPE svg PUBLIC "-//W3C//DTD SVG 1.1//EN"
 "http://www.w3.org/Graphics/SVG/1.1/DTD/svg11.dtd">
<!-- Generated by graphviz version 2.38.0 (20140413.2041)
 -->
<!-- Title: G Pages: 1 -->
<svg width="13005pt" height="340pt"
 viewBox="0.00 0.00 13004.54 339.98" xmlns="http://www.w3.org/2000/svg" xmlns:xlink="http://www.w3.org/1999/xlink">
<g id="graph0" class="graph" transform="scale(1 1) rotate(0) translate(7.992 331.992)">
<title>G</title>
<polygon fill="#000000" stroke="none" points="-7.992,7.992 -7.992,-331.992 12996.5,-331.992 12996.5,7.992 -7.992,7.992"/>
<!-- ../Lightbox/index -->
<g id="node1" class="node"><title>../Lightbox/index</title>
<ellipse fill="none" stroke="#c6c5fe" cx="2348.38" cy="-234" rx="79.2814" ry="18"/>
<text text-anchor="middle" x="2348.38" y="-230.849" font-family="Arial" font-size="14.00" fill="#c6c5fe">../Lightbox/index</text>
</g>
<!-- reducer -->
<g id="node2" class="node"><title>reducer</title>
<ellipse fill="none" stroke="#ff6c60" cx="2378.38" cy="-162" rx="42.9353" ry="18"/>
<text text-anchor="middle" x="2378.38" y="-158.849" font-family="Arial" font-size="14.00" fill="#ff6c60">reducer</text>
</g>
<!-- ../Lightbox/index&#45;&gt;reducer -->
<g id="edge1" class="edge"><title>../Lightbox/index&#45;&gt;reducer</title>
<path fill="none" stroke="#757575" d="M2355.64,-216.055C2359.1,-207.973 2363.32,-198.121 2367.19,-189.112"/>
<polygon fill="#757575" stroke="#757575" points="2370.46,-190.359 2371.18,-179.789 2364.03,-187.602 2370.46,-190.359"/>
</g>
<!-- columnsWidth/constants -->
<g id="node11" class="node"><title>columnsWidth/constants</title>
<ellipse fill="none" stroke="#cfffac" cx="2145.38" cy="-90" rx="112.779" ry="18"/>
<text text-anchor="middle" x="2145.38" y="-86.8493" font-family="Arial" font-size="14.00" fill="#cfffac">columnsWidth/constants</text>
</g>
<!-- reducer&#45;&gt;columnsWidth/constants -->
<g id="edge27" class="edge"><title>reducer&#45;&gt;columnsWidth/constants</title>
<path fill="none" stroke="#757575" d="M2344.5,-150.821C2308.24,-139.928 2249.98,-122.427 2205.83,-109.161"/>
<polygon fill="#757575" stroke="#757575" points="2206.65,-105.754 2196.07,-106.229 2204.64,-112.458 2206.65,-105.754"/>
</g>
<!-- columnsWidth/reducer -->
<g id="node13" class="node"><title>columnsWidth/reducer</title>
<ellipse fill="none" stroke="#c6c5fe" cx="1910.38" cy="-90" rx="104.514" ry="18"/>
<text text-anchor="middle" x="1910.38" y="-86.8493" font-family="Arial" font-size="14.00" fill="#c6c5fe">columnsWidth/reducer</text>
</g>
<!-- reducer&#45;&gt;columnsWidth/reducer -->
<g id="edge28" class="edge"><title>reducer&#45;&gt;columnsWidth/reducer</title>
<path fill="none" stroke="#757575" d="M2338.71,-155.093C2273.1,-145.319 2137.85,-125.156 2023.38,-108 2014.59,-106.683 2005.41,-105.306 1996.26,-103.931"/>
<polygon fill="#757575" stroke="#757575" points="1996.76,-100.467 1986.35,-102.442 1995.72,-107.39 1996.76,-100.467"/>
</g>
<!-- filter/index -->
<g id="node37" class="node"><title>filter/index</title>
<ellipse fill="none" stroke="#ff6c60" cx="1734.38" cy="-90" rx="53.9272" ry="18"/>
<text text-anchor="middle" x="1734.38" y="-86.8493" font-family="Arial" font-size="14.00" fill="#ff6c60">filter/index</text>
</g>
<!-- reducer&#45;&gt;filter/index -->
<g id="edge29" class="edge"><title>reducer&#45;&gt;filter/index</title>
<path fill="none" stroke="#757575" d="M2337.14,-156.871C2304.64,-153.241 2258.55,-147.938 2218.38,-144 2027.07,-125.246 1976.65,-141.557 1787.38,-108 1784.49,-107.489 1781.55,-106.903 1778.59,-106.265"/>
<polygon fill="#757575" stroke="#757575" points="1779.14,-102.796 1768.6,-103.918 1777.53,-109.611 1779.14,-102.796"/>
</g>
<!-- games/index -->
<g id="node49" class="node"><title>games/index</title>
<ellipse fill="none" stroke="#ff6c60" cx="2620.38" cy="-90" rx="64.3885" ry="18"/>
<text text-anchor="middle" x="2620.38" y="-86.8493" font-family="Arial" font-size="14.00" fill="#ff6c60">games/index</text>
</g>
<!-- reducer&#45;&gt;games/index -->
<g id="edge30" class="edge"><title>reducer&#45;&gt;games/index</title>
<path fill="none" stroke="#757575" d="M2410.87,-150.139C2450.32,-138.129 2517.23,-118.725 2564.87,-105.441"/>
<polygon fill="#757575" stroke="#757575" points="2566.02,-108.752 2574.72,-102.704 2564.15,-102.007 2566.02,-108.752"/>
</g>
<!-- sfilter/index -->
<g id="node52" class="node"><title>sfilter/index</title>
<ellipse fill="none" stroke="#ff6c60" cx="2479.38" cy="-90" rx="58.349" ry="18"/>
<text text-anchor="middle" x="2479.38" y="-86.8493" font-family="Arial" font-size="14.00" fill="#ff6c60">sfilter/index</text>
</g>
<!-- reducer&#45;&gt;sfilter/index -->
<g id="edge31" class="edge"><title>reducer&#45;&gt;sfilter/index</title>
<path fill="none" stroke="#757575" d="M2395.53,-145.116C2408.64,-135.246 2426.94,-122.45 2443.17,-111.779"/>
<polygon fill="#757575" stroke="#757575" points="2445.44,-114.48 2451.92,-106.101 2441.63,-108.607 2445.44,-114.48"/>
</g>
<!-- ../lib/FancyRangeFilterHelpers -->
<g id="node3" class="node"><title>../lib/FancyRangeFilterHelpers</title>
<ellipse fill="none" stroke="#cfffac" cx="3198.38" cy="-234" rx="137.499" ry="18"/>
<text text-anchor="middle" x="3198.38" y="-230.849" font-family="Arial" font-size="14.00" fill="#cfffac">../lib/FancyRangeFilterHelpers</text>
</g>
<!-- ../lib/TagsFinder -->
<g id="node4" class="node"><title>../lib/TagsFinder</title>
<ellipse fill="none" stroke="#cfffac" cx="521.377" cy="-18" rx="77.0583" ry="18"/>
<text text-anchor="middle" x="521.377" y="-14.8493" font-family="Arial" font-size="14.00" fill="#cfffac">../lib/TagsFinder</text>
</g>
<!-- ../lib/apiRequester -->
<g id="node5" class="node"><title>../lib/apiRequester</title>
<ellipse fill="none" stroke="#c6c5fe" cx="208.377" cy="-90" rx="86.9309" ry="18"/>
<text text-anchor="middle" x="208.377" y="-86.8493" font-family="Arial" font-size="14.00" fill="#c6c5fe">../lib/apiRequester</text>
</g>
<!-- ../lib/loadingSpinner -->
<g id="node6" class="node"><title>../lib/loadingSpinner</title>
<ellipse fill="none" stroke="#cfffac" cx="270.377" cy="-18" rx="93.5674" ry="18"/>
<text text-anchor="middle" x="270.377" y="-14.8493" font-family="Arial" font-size="14.00" fill="#cfffac">../lib/loadingSpinner</text>
</g>
<!-- ../lib/apiRequester&#45;&gt;../lib/loadingSpinner -->
<g id="edge2" class="edge"><title>../lib/apiRequester&#45;&gt;../lib/loadingSpinner</title>
<path fill="none" stroke="#757575" d="M223.385,-72.055C231.001,-63.4567 240.39,-52.8566 248.768,-43.3974"/>
<polygon fill="#757575" stroke="#757575" points="251.496,-45.5955 255.507,-35.789 246.256,-40.9543 251.496,-45.5955"/>
</g>
<!-- ../lib/utils -->
<g id="node7" class="node"><title>../lib/utils</title>
<ellipse fill="none" stroke="#cfffac" cx="1489.38" cy="-18" rx="47.3477" ry="18"/>
<text text-anchor="middle" x="1489.38" y="-14.8493" font-family="Arial" font-size="14.00" fill="#cfffac">../lib/utils</text>
</g>
<!-- ../lib/apiRequester&#45;&gt;../lib/utils -->
<g id="edge3" class="edge"><title>../lib/apiRequester&#45;&gt;../lib/utils</title>
<path fill="none" stroke="#757575" d="M268.889,-77.0481C280.622,-75.0813 292.853,-73.2726 304.377,-72 735.651,-24.3758 1259.72,-19.2428 1431.7,-18.9176"/>
<polygon fill="#757575" stroke="#757575" points="1431.8,-22.4175 1441.79,-18.9034 1431.79,-15.4176 1431.8,-22.4175"/>
</g>
<!-- ../sources/config -->
<g id="node8" class="node"><title>../sources/config</title>
<ellipse fill="none" stroke="#cfffac" cx="79.3768" cy="-18" rx="79.2538" ry="18"/>
<text text-anchor="middle" x="79.3768" y="-14.8493" font-family="Arial" font-size="14.00" fill="#cfffac">../sources/config</text>
</g>
<!-- ../lib/apiRequester&#45;&gt;../sources/config -->
<g id="edge4" class="edge"><title>../lib/apiRequester&#45;&gt;../sources/config</title>
<path fill="none" stroke="#757575" d="M178.782,-72.9406C160.673,-63.1141 137.311,-50.4373 117.786,-39.8423"/>
<polygon fill="#757575" stroke="#757575" points="119.293,-36.6779 108.834,-34.9847 115.954,-42.8304 119.293,-36.6779"/>
</g>
<!-- ../lib/b64FilterGenerator -->
<g id="node9" class="node"><title>../lib/b64FilterGenerator</title>
<ellipse fill="none" stroke="#cfffac" cx="2339.38" cy="-18" rx="109.504" ry="18"/>
<text text-anchor="middle" x="2339.38" y="-14.8493" font-family="Arial" font-size="14.00" fill="#cfffac">../lib/b64FilterGenerator</text>
</g>
<!-- ../sources/api -->
<g id="node10" class="node"><title>../sources/api</title>
<ellipse fill="none" stroke="#c6c5fe" cx="864.377" cy="-162" rx="66.615" ry="18"/>
<text text-anchor="middle" x="864.377" y="-158.849" font-family="Arial" font-size="14.00" fill="#c6c5fe">../sources/api</text>
</g>
<!-- ../sources/api&#45;&gt;../lib/apiRequester -->
<g id="edge5" class="edge"><title>../sources/api&#45;&gt;../lib/apiRequester</title>
<path fill="none" stroke="#757575" d="M800.357,-156.634C696.13,-149.147 483.402,-132.282 304.377,-108 296.507,-106.933 288.297,-105.685 280.136,-104.36"/>
<polygon fill="#757575" stroke="#757575" points="280.67,-100.901 270.231,-102.712 279.521,-107.806 280.67,-100.901"/>
</g>
<!-- columnsWidth/lib/TableWidthCalculator -->
<g id="node12" class="node"><title>columnsWidth/lib/TableWidthCalculator</title>
<ellipse fill="none" stroke="#cfffac" cx="4085.38" cy="-306" rx="173.77" ry="18"/>
<text text-anchor="middle" x="4085.38" y="-302.849" font-family="Arial" font-size="14.00" fill="#cfffac">columnsWidth/lib/TableWidthCalculator</text>
</g>
<!-- columnsWidth/reducer&#45;&gt;../lib/utils -->
<g id="edge6" class="edge"><title>columnsWidth/reducer&#45;&gt;../lib/utils</title>
<path fill="none" stroke="#757575" d="M1838,-76.9666C1753.8,-62.9664 1616.81,-40.1883 1542.08,-27.7637"/>
<polygon fill="#757575" stroke="#757575" points="1542.4,-24.2689 1531.97,-26.0812 1541.26,-31.1741 1542.4,-24.2689"/>
</g>
<!-- columnsWidth/selectors -->
<g id="node14" class="node"><title>columnsWidth/selectors</title>
<ellipse fill="none" stroke="#cfffac" cx="4387.38" cy="-306" rx="110.025" ry="18"/>
<text text-anchor="middle" x="4387.38" y="-302.849" font-family="Arial" font-size="14.00" fill="#cfffac">columnsWidth/selectors</text>
</g>
<!-- config/autoTitleDefinitions -->
<g id="node15" class="node"><title>config/autoTitleDefinitions</title>
<ellipse fill="none" stroke="#c6c5fe" cx="866.377" cy="-90" rx="118.128" ry="18"/>
<text text-anchor="middle" x="866.377" y="-86.8493" font-family="Arial" font-size="14.00" fill="#c6c5fe">config/autoTitleDefinitions</text>
</g>
<!-- config/autoTitleDefinitions&#45;&gt;../lib/utils -->
<g id="edge7" class="edge"><title>config/autoTitleDefinitions&#45;&gt;../lib/utils</title>
<path fill="none" stroke="#757575" d="M951.046,-77.3473C965.174,-75.4945 979.684,-73.6478 993.377,-72 1152.96,-52.7971 1341.85,-33.5807 1433.68,-24.4636"/>
<polygon fill="#757575" stroke="#757575" points="1434.25,-27.9242 1443.86,-23.4551 1433.56,-20.9584 1434.25,-27.9242"/>
</g>
<!-- config/defaultFilter -->
<g id="node16" class="node"><title>config/defaultFilter</title>
<ellipse fill="none" stroke="#cfffac" cx="4603.38" cy="-306" rx="87.5199" ry="18"/>
<text text-anchor="middle" x="4603.38" y="-302.849" font-family="Arial" font-size="14.00" fill="#cfffac">config/defaultFilter</text>
</g>
<!-- config/enumColumns -->
<g id="node17" class="node"><title>config/enumColumns</title>
<ellipse fill="none" stroke="#cfffac" cx="4808.38" cy="-306" rx="99.0608" ry="18"/>
<text text-anchor="middle" x="4808.38" y="-302.849" font-family="Arial" font-size="14.00" fill="#cfffac">config/enumColumns</text>
</g>
<!-- config/filtersDefinitions -->
<g id="node18" class="node"><title>config/filtersDefinitions</title>
<ellipse fill="none" stroke="#cfffac" cx="5030.38" cy="-306" rx="105.072" ry="18"/>
<text text-anchor="middle" x="5030.38" y="-302.849" font-family="Arial" font-size="14.00" fill="#cfffac">config/filtersDefinitions</text>
</g>
<!-- config/filtersOptions -->
<g id="node19" class="node"><title>config/filtersOptions</title>
<ellipse fill="none" stroke="#cfffac" cx="5247.38" cy="-306" rx="93.5306" ry="18"/>
<text text-anchor="middle" x="5247.38" y="-302.849" font-family="Arial" font-size="14.00" fill="#cfffac">config/filtersOptions</text>
</g>
<!-- config/filtersSectionsDefinitions -->
<g id="node20" class="node"><title>config/filtersSectionsDefinitions</title>
<ellipse fill="none" stroke="#cfffac" cx="5500.38" cy="-306" rx="141.352" ry="18"/>
<text text-anchor="middle" x="5500.38" y="-302.849" font-family="Arial" font-size="14.00" fill="#cfffac">config/filtersSectionsDefinitions</text>
</g>
<!-- config/filtersSectionsDefinitionsExtra -->
<g id="node21" class="node"><title>config/filtersSectionsDefinitionsExtra</title>
<ellipse fill="none" stroke="#cfffac" cx="5822.38" cy="-306" rx="163.336" ry="18"/>
<text text-anchor="middle" x="5822.38" y="-302.849" font-family="Arial" font-size="14.00" fill="#cfffac">config/filtersSectionsDefinitionsExtra</text>
</g>
<!-- config/filtersSectionsFlatSort -->
<g id="node22" class="node"><title>config/filtersSectionsFlatSort</title>
<ellipse fill="none" stroke="#cfffac" cx="6133.38" cy="-306" rx="130.341" ry="18"/>
<text text-anchor="middle" x="6133.38" y="-302.849" font-family="Arial" font-size="14.00" fill="#cfffac">config/filtersSectionsFlatSort</text>
</g>
<!-- filter/components/filters/BooleanFilter -->
<g id="node23" class="node"><title>filter/components/filters/BooleanFilter</title>
<ellipse fill="none" stroke="#cfffac" cx="6447.38" cy="-306" rx="165.572" ry="18"/>
<text text-anchor="middle" x="6447.38" y="-302.849" font-family="Arial" font-size="14.00" fill="#cfffac">filter/components/filters/BooleanFilter</text>
</g>
<!-- filter/components/filters/FancyRangeFilter -->
<g id="node24" class="node"><title>filter/components/filters/FancyRangeFilter</title>
<ellipse fill="none" stroke="#c6c5fe" cx="2747.38" cy="-306" rx="184.762" ry="18"/>
<text text-anchor="middle" x="2747.38" y="-302.849" font-family="Arial" font-size="14.00" fill="#c6c5fe">filter/components/filters/FancyRangeFilter</text>
</g>
<!-- filter/components/filters/FancyRangeFilter&#45;&gt;../lib/FancyRangeFilterHelpers -->
<g id="edge8" class="edge"><title>filter/components/filters/FancyRangeFilter&#45;&gt;../lib/FancyRangeFilterHelpers</title>
<path fill="none" stroke="#757575" d="M2841.1,-290.453C2917.91,-278.531 3026.16,-261.73 3103.33,-249.752"/>
<polygon fill="#757575" stroke="#757575" points="3104.19,-253.161 3113.53,-248.169 3103.11,-246.244 3104.19,-253.161"/>
</g>
<!-- filter/components/filters/FancyRangeFilterBar -->
<g id="node25" class="node"><title>filter/components/filters/FancyRangeFilterBar</title>
<ellipse fill="none" stroke="#cfffac" cx="6830.38" cy="-306" rx="199.088" ry="18"/>
<text text-anchor="middle" x="6830.38" y="-302.849" font-family="Arial" font-size="14.00" fill="#cfffac">filter/components/filters/FancyRangeFilterBar</text>
</g>
<!-- filter/components/filters/FancyRangeFilterLabel -->
<g id="node26" class="node"><title>filter/components/filters/FancyRangeFilterLabel</title>
<ellipse fill="none" stroke="#cfffac" cx="7255.38" cy="-306" rx="207.872" ry="18"/>
<text text-anchor="middle" x="7255.38" y="-302.849" font-family="Arial" font-size="14.00" fill="#cfffac">filter/components/filters/FancyRangeFilterLabel</text>
</g>
<!-- filter/components/filters/FancyRangeFilterMappedSensor -->
<g id="node27" class="node"><title>filter/components/filters/FancyRangeFilterMappedSensor</title>
<ellipse fill="none" stroke="#c6c5fe" cx="3198.38" cy="-306" rx="248.574" ry="18"/>
<text text-anchor="middle" x="3198.38" y="-302.849" font-family="Arial" font-size="14.00" fill="#c6c5fe">filter/components/filters/FancyRangeFilterMappedSensor</text>
</g>
<!-- filter/components/filters/FancyRangeFilterMappedSensor&#45;&gt;../lib/FancyRangeFilterHelpers -->
<g id="edge9" class="edge"><title>filter/components/filters/FancyRangeFilterMappedSensor&#45;&gt;../lib/FancyRangeFilterHelpers</title>
<path fill="none" stroke="#757575" d="M3198.38,-287.697C3198.38,-279.983 3198.38,-270.712 3198.38,-262.112"/>
<polygon fill="#757575" stroke="#757575" points="3201.88,-262.104 3198.38,-252.104 3194.88,-262.104 3201.88,-262.104"/>
</g>
<!-- filter/components/filters/FancyRangeFilterSensor -->
<g id="node28" class="node"><title>filter/components/filters/FancyRangeFilterSensor</title>
<ellipse fill="none" stroke="#c6c5fe" cx="3679.38" cy="-306" rx="214.472" ry="18"/>
<text text-anchor="middle" x="3679.38" y="-302.849" font-family="Arial" font-size="14.00" fill="#c6c5fe">filter/components/filters/FancyRangeFilterSensor</text>
</g>
<!-- filter/components/filters/FancyRangeFilterSensor&#45;&gt;../lib/FancyRangeFilterHelpers -->
<g id="edge10" class="edge"><title>filter/components/filters/FancyRangeFilterSensor&#45;&gt;../lib/FancyRangeFilterHelpers</title>
<path fill="none" stroke="#757575" d="M3577.37,-290.155C3494.51,-278.096 3378.38,-261.196 3296.57,-249.289"/>
<polygon fill="#757575" stroke="#757575" points="3296.91,-245.803 3286.51,-247.826 3295.9,-252.73 3296.91,-245.803"/>
</g>
<!-- filter/components/filters/NullFilter -->
<g id="node29" class="node"><title>filter/components/filters/NullFilter</title>
<ellipse fill="none" stroke="#cfffac" cx="7628.38" cy="-306" rx="147.375" ry="18"/>
<text text-anchor="middle" x="7628.38" y="-302.849" font-family="Arial" font-size="14.00" fill="#cfffac">filter/components/filters/NullFilter</text>
</g>
<!-- filter/components/filters/NumberFilter -->
<g id="node30" class="node"><title>filter/components/filters/NumberFilter</title>
<ellipse fill="none" stroke="#cfffac" cx="7958.38" cy="-306" rx="164.937" ry="18"/>
<text text-anchor="middle" x="7958.38" y="-302.849" font-family="Arial" font-size="14.00" fill="#cfffac">filter/components/filters/NumberFilter</text>
</g>
<!-- filter/components/filters/RangeFilter -->
<g id="node31" class="node"><title>filter/components/filters/RangeFilter</title>
<ellipse fill="none" stroke="#cfffac" cx="8300.38" cy="-306" rx="158.944" ry="18"/>
<text text-anchor="middle" x="8300.38" y="-302.849" font-family="Arial" font-size="14.00" fill="#cfffac">filter/components/filters/RangeFilter</text>
</g>
<!-- filter/components/filters/TagsFilter -->
<g id="node32" class="node"><title>filter/components/filters/TagsFilter</title>
<ellipse fill="none" stroke="#cfffac" cx="8628.38" cy="-306" rx="151.218" ry="18"/>
<text text-anchor="middle" x="8628.38" y="-302.849" font-family="Arial" font-size="14.00" fill="#cfffac">filter/components/filters/TagsFilter</text>
</g>
<!-- filter/components/filters/TagsFilter/SelectedTags -->
<g id="node33" class="node"><title>filter/components/filters/TagsFilter/SelectedTags</title>
<ellipse fill="none" stroke="#cfffac" cx="9007.38" cy="-306" rx="210.098" ry="18"/>
<text text-anchor="middle" x="9007.38" y="-302.849" font-family="Arial" font-size="14.00" fill="#cfffac">filter/components/filters/TagsFilter/SelectedTags</text>
</g>
<!-- filter/components/filters/TagsFilter/TagsSelector -->
<g id="node34" class="node"><title>filter/components/filters/TagsFilter/TagsSelector</title>
<ellipse fill="none" stroke="#c6c5fe" cx="521.377" cy="-90" rx="208.393" ry="18"/>
<text text-anchor="middle" x="521.377" y="-86.8493" font-family="Arial" font-size="14.00" fill="#c6c5fe">filter/components/filters/TagsFilter/TagsSelector</text>
</g>
<!-- filter/components/filters/TagsFilter/TagsSelector&#45;&gt;../lib/TagsFinder -->
<g id="edge11" class="edge"><title>filter/components/filters/TagsFilter/TagsSelector&#45;&gt;../lib/TagsFinder</title>
<path fill="none" stroke="#757575" d="M521.377,-71.6966C521.377,-63.9827 521.377,-54.7125 521.377,-46.1124"/>
<polygon fill="#757575" stroke="#757575" points="524.877,-46.1043 521.377,-36.1043 517.877,-46.1044 524.877,-46.1043"/>
</g>
<!-- filter/components/filters/TagsFilter/TagsSelector&#45;&gt;../lib/utils -->
<g id="edge12" class="edge"><title>filter/components/filters/TagsFilter/TagsSelector&#45;&gt;../lib/utils</title>
<path fill="none" stroke="#757575" d="M669.414,-77.3099C692.82,-75.5037 716.757,-73.6812 739.377,-72 998.304,-52.7557 1307.65,-31.4201 1432.74,-22.8609"/>
<polygon fill="#757575" stroke="#757575" points="1433.11,-26.3438 1442.85,-22.1696 1432.64,-19.3601 1433.11,-26.3438"/>
</g>
<!-- filter/components/filters/TextFilter -->
<g id="node35" class="node"><title>filter/components/filters/TextFilter</title>
<ellipse fill="none" stroke="#cfffac" cx="9384.38" cy="-306" rx="148.473" ry="18"/>
<text text-anchor="middle" x="9384.38" y="-302.849" font-family="Arial" font-size="14.00" fill="#cfffac">filter/components/filters/TextFilter</text>
</g>
<!-- filter/components/toggles/BaseToggle -->
<g id="node36" class="node"><title>filter/components/toggles/BaseToggle</title>
<ellipse fill="none" stroke="#cfffac" cx="9718.38" cy="-306" rx="167.265" ry="18"/>
<text text-anchor="middle" x="9718.38" y="-302.849" font-family="Arial" font-size="14.00" fill="#cfffac">filter/components/toggles/BaseToggle</text>
</g>
<!-- filter/index&#45;&gt;reducer -->
<g id="edge13" class="edge"><title>filter/index&#45;&gt;reducer</title>
<path fill="none" stroke="#757575" d="M1776.24,-101.317C1785.83,-103.856 1795.93,-106.324 1805.38,-108 1994.65,-141.557 2045.07,-125.246 2236.38,-144 2267.11,-147.013 2301.3,-150.824 2328.51,-154.074"/>
<polygon fill="#757575" stroke="#757575" points="2328.23,-157.565 2338.57,-155.29 2329.07,-150.616 2328.23,-157.565"/>
</g>
<!-- filter/reducer -->
<g id="node38" class="node"><title>filter/reducer</title>
<ellipse fill="none" stroke="#c6c5fe" cx="2339.38" cy="-90" rx="63.2718" ry="18"/>
<text text-anchor="middle" x="2339.38" y="-86.8493" font-family="Arial" font-size="14.00" fill="#c6c5fe">filter/reducer</text>
</g>
<!-- filter/reducer&#45;&gt;../lib/utils -->
<g id="edge15" class="edge"><title>filter/reducer&#45;&gt;../lib/utils</title>
<path fill="none" stroke="#757575" d="M2294.66,-77.245C2285.68,-75.2226 2276.27,-73.343 2267.38,-72 2000.19,-31.635 1676.71,-21.9948 1547.13,-19.7063"/>
<polygon fill="#757575" stroke="#757575" points="1547.09,-16.2053 1537.03,-19.5361 1546.97,-23.2043 1547.09,-16.2053"/>
</g>
<!-- filter/reducer&#45;&gt;../lib/b64FilterGenerator -->
<g id="edge14" class="edge"><title>filter/reducer&#45;&gt;../lib/b64FilterGenerator</title>
<path fill="none" stroke="#757575" d="M2339.38,-71.6966C2339.38,-63.9827 2339.38,-54.7125 2339.38,-46.1124"/>
<polygon fill="#757575" stroke="#757575" points="2342.88,-46.1043 2339.38,-36.1043 2335.88,-46.1044 2342.88,-46.1043"/>
</g>
<!-- games/components/DataTableBatch -->
<g id="node39" class="node"><title>games/components/DataTableBatch</title>
<ellipse fill="none" stroke="#c6c5fe" cx="1958.38" cy="-162" rx="162.284" ry="18"/>
<text text-anchor="middle" x="1958.38" y="-158.849" font-family="Arial" font-size="14.00" fill="#c6c5fe">games/components/DataTableBatch</text>
</g>
<!-- games/components/DataTableBatch&#45;&gt;filter/index -->
<g id="edge16" class="edge"><title>games/components/DataTableBatch&#45;&gt;filter/index</title>
<path fill="none" stroke="#757575" d="M1906.71,-144.853C1869.15,-133.116 1818.69,-117.349 1782.09,-105.91"/>
<polygon fill="#757575" stroke="#757575" points="1782.74,-102.448 1772.15,-102.806 1780.66,-109.129 1782.74,-102.448"/>
</g>
<!-- games/components/columns/BooleanColumn -->
<g id="node40" class="node"><title>games/components/columns/BooleanColumn</title>
<ellipse fill="none" stroke="#cfffac" cx="10104.4" cy="-306" rx="200.241" ry="18"/>
<text text-anchor="middle" x="10104.4" y="-302.849" font-family="Arial" font-size="14.00" fill="#cfffac">games/components/columns/BooleanColumn</text>
</g>
<!-- games/components/columns/ImagesColumn -->
<g id="node41" class="node"><title>games/components/columns/ImagesColumn</title>
<ellipse fill="none" stroke="#c6c5fe" cx="2348.38" cy="-306" rx="196.88" ry="18"/>
<text text-anchor="middle" x="2348.38" y="-302.849" font-family="Arial" font-size="14.00" fill="#c6c5fe">games/components/columns/ImagesColumn</text>
</g>
<!-- games/components/columns/ImagesColumn&#45;&gt;../Lightbox/index -->
<g id="edge17" class="edge"><title>games/components/columns/ImagesColumn&#45;&gt;../Lightbox/index</title>
<path fill="none" stroke="#757575" d="M2348.38,-287.697C2348.38,-279.983 2348.38,-270.712 2348.38,-262.112"/>
<polygon fill="#757575" stroke="#757575" points="2351.88,-262.104 2348.38,-252.104 2344.88,-262.104 2351.88,-262.104"/>
</g>
<!-- games/components/columns/LinkColumn -->
<g id="node42" class="node"><title>games/components/columns/LinkColumn</title>
<ellipse fill="none" stroke="#cfffac" cx="10505.4" cy="-306" rx="183.152" ry="18"/>
<text text-anchor="middle" x="10505.4" y="-302.849" font-family="Arial" font-size="14.00" fill="#cfffac">games/components/columns/LinkColumn</text>
</g>
<!-- games/components/columns/PriceColumn -->
<g id="node43" class="node"><title>games/components/columns/PriceColumn</title>
<ellipse fill="none" stroke="#cfffac" cx="10893.4" cy="-306" rx="187.016" ry="18"/>
<text text-anchor="middle" x="10893.4" y="-302.849" font-family="Arial" font-size="14.00" fill="#cfffac">games/components/columns/PriceColumn</text>
</g>
<!-- games/components/columns/RatioColumn -->
<g id="node44" class="node"><title>games/components/columns/RatioColumn</title>
<ellipse fill="none" stroke="#cfffac" cx="11286.4" cy="-306" rx="187.574" ry="18"/>
<text text-anchor="middle" x="11286.4" y="-302.849" font-family="Arial" font-size="14.00" fill="#cfffac">games/components/columns/RatioColumn</text>
</g>
<!-- games/components/columns/RawColumn -->
<g id="node45" class="node"><title>games/components/columns/RawColumn</title>
<ellipse fill="none" stroke="#cfffac" cx="11676.4" cy="-306" rx="184.78" ry="18"/>
<text text-anchor="middle" x="11676.4" y="-302.849" font-family="Arial" font-size="14.00" fill="#cfffac">games/components/columns/RawColumn</text>
</g>
<!-- games/components/columns/SystemReqColumn -->
<g id="node46" class="node"><title>games/components/columns/SystemReqColumn</title>
<ellipse fill="none" stroke="#cfffac" cx="12093.4" cy="-306" rx="214.481" ry="18"/>
<text text-anchor="middle" x="12093.4" y="-302.849" font-family="Arial" font-size="14.00" fill="#cfffac">games/components/columns/SystemReqColumn</text>
</g>
<!-- games/components/columns/TagsColumn -->
<g id="node47" class="node"><title>games/components/columns/TagsColumn</title>
<ellipse fill="none" stroke="#c6c5fe" cx="1188.38" cy="-90" rx="185.888" ry="18"/>
<text text-anchor="middle" x="1188.38" y="-86.8493" font-family="Arial" font-size="14.00" fill="#c6c5fe">games/components/columns/TagsColumn</text>
</g>
<!-- games/components/columns/TagsColumn&#45;&gt;../lib/utils -->
<g id="edge18" class="edge"><title>games/components/columns/TagsColumn&#45;&gt;../lib/utils</title>
<path fill="none" stroke="#757575" d="M1256.3,-73.2034C1312.1,-60.226 1389.84,-42.1472 1439.89,-30.5076"/>
<polygon fill="#757575" stroke="#757575" points="1440.88,-33.8716 1449.83,-28.1974 1439.3,-27.0535 1440.88,-33.8716"/>
</g>
<!-- games/components/columns/TimeAgoColumn -->
<g id="node48" class="node"><title>games/components/columns/TimeAgoColumn</title>
<ellipse fill="none" stroke="#cfffac" cx="12529.4" cy="-306" rx="203.29" ry="18"/>
<text text-anchor="middle" x="12529.4" y="-302.849" font-family="Arial" font-size="14.00" fill="#cfffac">games/components/columns/TimeAgoColumn</text>
</g>
<!-- games/index&#45;&gt;reducer -->
<g id="edge19" class="edge"><title>games/index&#45;&gt;reducer</title>
<path fill="none" stroke="#757575" d="M2580.33,-104.149C2537.27,-117.141 2469.14,-136.827 2424.04,-149.294"/>
<polygon fill="#757575" stroke="#757575" points="2422.94,-145.967 2414.22,-151.992 2424.79,-152.716 2422.94,-145.967"/>
</g>
<!-- games/reducer -->
<g id="node50" class="node"><title>games/reducer</title>
<ellipse fill="none" stroke="#c6c5fe" cx="911.377" cy="-234" rx="73.7332" ry="18"/>
<text text-anchor="middle" x="911.377" y="-230.849" font-family="Arial" font-size="14.00" fill="#c6c5fe">games/reducer</text>
</g>
<!-- games/reducer&#45;&gt;../lib/utils -->
<g id="edge20" class="edge"><title>games/reducer&#45;&gt;../lib/utils</title>
<path fill="none" stroke="#757575" d="M984.151,-230.982C1144.07,-224.857 1518.07,-200.715 1595.38,-108 1605.62,-95.7114 1603.79,-85.6104 1595.38,-72 1582.9,-51.8138 1560.15,-39.0588 1538.92,-31.1363"/>
<polygon fill="#757575" stroke="#757575" points="1539.9,-27.7747 1529.31,-27.827 1537.62,-34.3931 1539.9,-27.7747"/>
</g>
<!-- games/reducer&#45;&gt;../sources/api -->
<g id="edge21" class="edge"><title>games/reducer&#45;&gt;../sources/api</title>
<path fill="none" stroke="#757575" d="M899.999,-216.055C894.4,-207.715 887.535,-197.491 881.332,-188.252"/>
<polygon fill="#757575" stroke="#757575" points="884.13,-186.14 875.649,-179.789 878.318,-190.042 884.13,-186.14"/>
</g>
<!-- index -->
<g id="node51" class="node"><title>index</title>
<ellipse fill="none" stroke="#c6c5fe" cx="2479.38" cy="-234" rx="33.0903" ry="18"/>
<text text-anchor="middle" x="2479.38" y="-230.849" font-family="Arial" font-size="14.00" fill="#c6c5fe">index</text>
</g>
<!-- index&#45;&gt;reducer -->
<g id="edge24" class="edge"><title>index&#45;&gt;reducer</title>
<path fill="none" stroke="#757575" d="M2459.42,-219.17C2444.74,-208.991 2424.53,-194.986 2407.96,-183.507"/>
<polygon fill="#757575" stroke="#757575" points="2409.9,-180.587 2399.68,-177.768 2405.91,-186.341 2409.9,-180.587"/>
</g>
<!-- index&#45;&gt;filter/index -->
<g id="edge22" class="edge"><title>index&#45;&gt;filter/index</title>
<path fill="none" stroke="#757575" d="M2453.67,-222.132C2448.03,-219.944 2442.05,-217.775 2436.38,-216 2302.63,-174.125 2267.53,-167.576 2129.38,-144 1982.64,-118.958 1942.63,-135.771 1796.38,-108 1791.94,-107.157 1787.36,-106.156 1782.78,-105.068"/>
<polygon fill="#757575" stroke="#757575" points="1783.4,-101.615 1772.85,-102.574 1781.7,-108.404 1783.4,-101.615"/>
</g>
<!-- index&#45;&gt;games/index -->
<g id="edge23" class="edge"><title>index&#45;&gt;games/index</title>
<path fill="none" stroke="#757575" d="M2494.47,-217.804C2518.86,-193.24 2567.15,-144.603 2596.32,-115.222"/>
<polygon fill="#757575" stroke="#757575" points="2599.09,-117.4 2603.66,-107.838 2594.13,-112.468 2599.09,-117.4"/>
</g>
<!-- index&#45;&gt;sfilter/index -->
<g id="edge25" class="edge"><title>index&#45;&gt;sfilter/index</title>
<path fill="none" stroke="#757575" d="M2479.38,-215.871C2479.38,-191.67 2479.38,-147.211 2479.38,-118.393"/>
<polygon fill="#757575" stroke="#757575" points="2482.88,-118.189 2479.38,-108.189 2475.88,-118.189 2482.88,-118.189"/>
</g>
<!-- sfilter/index&#45;&gt;reducer -->
<g id="edge32" class="edge"><title>sfilter/index&#45;&gt;reducer</title>
<path fill="none" stroke="#757575" d="M2461.62,-107.335C2447.97,-117.587 2428.92,-130.859 2412.42,-141.639"/>
<polygon fill="#757575" stroke="#757575" points="2410.09,-138.981 2403.57,-147.337 2413.87,-144.867 2410.09,-138.981"/>
</g>
<!-- lib/gamesQueryGenerator -->
<g id="node53" class="node"><title>lib/gamesQueryGenerator</title>
<ellipse fill="none" stroke="#cfffac" cx="12869.4" cy="-306" rx="119.358" ry="18"/>
<text text-anchor="middle" x="12869.4" y="-302.849" font-family="Arial" font-size="14.00" fill="#cfffac">lib/gamesQueryGenerator</text>
</g>
<!-- lib/generateAutoTitle -->
<g id="node54" class="node"><title>lib/generateAutoTitle</title>
<ellipse fill="none" stroke="#c6c5fe" cx="1489.38" cy="-90" rx="96.6929" ry="18"/>
<text text-anchor="middle" x="1489.38" y="-86.8493" font-family="Arial" font-size="14.00" fill="#c6c5fe">lib/generateAutoTitle</text>
</g>
<!-- lib/generateAutoTitle&#45;&gt;../lib/utils -->
<g id="edge26" class="edge"><title>lib/generateAutoTitle&#45;&gt;../lib/utils</title>
<path fill="none" stroke="#757575" d="M1489.38,-71.6966C1489.38,-63.9827 1489.38,-54.7125 1489.38,-46.1124"/>
<polygon fill="#757575" stroke="#757575" points="1492.88,-46.1043 1489.38,-36.1043 1485.88,-46.1044 1492.88,-46.1043"/>
</g>
<!-- sfilter/reducer -->
<g id="node55" class="node"><title>sfilter/reducer</title>
<ellipse fill="none" stroke="#c6c5fe" cx="1710.38" cy="-162" rx="67.6944" ry="18"/>
<text text-anchor="middle" x="1710.38" y="-158.849" font-family="Arial" font-size="14.00" fill="#c6c5fe">sfilter/reducer</text>
</g>
<!-- sfilter/reducer&#45;&gt;../lib/utils -->
<g id="edge33" class="edge"><title>sfilter/reducer&#45;&gt;../lib/utils</title>
<path fill="none" stroke="#757575" d="M1698.59,-144.048C1684.09,-124.32 1657.78,-91.9104 1628.38,-72 1600.74,-53.2801 1565.57,-39.9523 1537.53,-31.3439"/>
<polygon fill="#757575" stroke="#757575" points="1538.51,-27.9851 1527.93,-28.4947 1536.52,-34.6957 1538.51,-27.9851"/>
</g>
<!-- sfilter/reducer&#45;&gt;filter/index -->
<g id="edge34" class="edge"><title>sfilter/reducer&#45;&gt;filter/index</title>
<path fill="none" stroke="#757575" d="M1716.19,-144.055C1718.89,-136.176 1722.17,-126.617 1725.19,-117.794"/>
<polygon fill="#757575" stroke="#757575" points="1728.52,-118.87 1728.45,-108.275 1721.9,-116.6 1728.52,-118.87"/>
</g>
</g>
</svg>
