<?xml version="1.0" encoding="UTF-8" standalone="no"?>
<!DOCTYPE svg PUBLIC "-//W3C//DTD SVG 1.1//EN"
 "http://www.w3.org/Graphics/SVG/1.1/DTD/svg11.dtd">
<!-- Generated by graphviz version 2.38.0 (20140413.2041)
 -->
<!-- Title: G Pages: 1 -->
<svg width="222pt" height="124pt"
 viewBox="0.00 0.00 221.80 123.98" xmlns="http://www.w3.org/2000/svg" xmlns:xlink="http://www.w3.org/1999/xlink">
<g id="graph0" class="graph" transform="scale(1 1) rotate(0) translate(7.992 115.992)">
<title>G</title>
<polygon fill="#000000" stroke="none" points="-7.992,7.992 -7.992,-115.992 213.809,-115.992 213.809,7.992 -7.992,7.992"/>
<!-- constants -->
<g id="node1" class="node"><title>constants</title>
<ellipse fill="none" stroke="#cfffac" cx="51.0999" cy="-18" rx="51.2" ry="18"/>
<text text-anchor="middle" x="51.0999" y="-14.8493" font-family="Arial" font-size="14.00" fill="#cfffac">constants</text>
</g>
<!-- index -->
<g id="node2" class="node"><title>index</title>
<ellipse fill="none" stroke="#c6c5fe" cx="157.1" cy="-90" rx="33.0903" ry="18"/>
<text text-anchor="middle" x="157.1" y="-86.8493" font-family="Arial" font-size="14.00" fill="#c6c5fe">index</text>
</g>
<!-- index&#45;&gt;constants -->
<g id="edge1" class="edge"><title>index&#45;&gt;constants</title>
<path fill="none" stroke="#757575" d="M136.662,-75.5033C121.395,-65.4215 100.243,-51.4532 82.7902,-39.9276"/>
<polygon fill="#757575" stroke="#757575" points="84.3247,-36.7466 74.0513,-34.1566 80.4673,-42.5879 84.3247,-36.7466"/>
</g>
<!-- reducer -->
<g id="node3" class="node"><title>reducer</title>
<ellipse fill="none" stroke="#cfffac" cx="163.1" cy="-18" rx="42.9353" ry="18"/>
<text text-anchor="middle" x="163.1" y="-14.8493" font-family="Arial" font-size="14.00" fill="#cfffac">reducer</text>
</g>
<!-- index&#45;&gt;reducer -->
<g id="edge2" class="edge"><title>index&#45;&gt;reducer</title>
<path fill="none" stroke="#757575" d="M158.583,-71.6966C159.244,-63.9827 160.039,-54.7125 160.776,-46.1124"/>
<polygon fill="#757575" stroke="#757575" points="164.267,-46.3667 161.634,-36.1043 157.292,-45.7689 164.267,-46.3667"/>
</g>
<!-- selectors -->
<g id="node4" class="node"><title>selectors</title>
<ellipse fill="none" stroke="#c6c5fe" cx="51.0999" cy="-90" rx="48.4456" ry="18"/>
<text text-anchor="middle" x="51.0999" y="-86.8493" font-family="Arial" font-size="14.00" fill="#c6c5fe">selectors</text>
</g>
<!-- selectors&#45;&gt;constants -->
<g id="edge3" class="edge"><title>selectors&#45;&gt;constants</title>
<path fill="none" stroke="#757575" d="M51.0999,-71.6966C51.0999,-63.9827 51.0999,-54.7125 51.0999,-46.1124"/>
<polygon fill="#757575" stroke="#757575" points="54.6,-46.1043 51.0999,-36.1043 47.6,-46.1044 54.6,-46.1043"/>
</g>
</g>
</svg>
