<?xml version="1.0" encoding="UTF-8" standalone="no"?>
<!DOCTYPE svg PUBLIC "-//W3C//DTD SVG 1.1//EN"
 "http://www.w3.org/Graphics/SVG/1.1/DTD/svg11.dtd">
<!-- Generated by graphviz version 2.38.0 (20140413.2041)
 -->
<!-- Title: G Pages: 1 -->
<svg width="227pt" height="196pt"
 viewBox="0.00 0.00 226.51 195.98" xmlns="http://www.w3.org/2000/svg" xmlns:xlink="http://www.w3.org/1999/xlink">
<g id="graph0" class="graph" transform="scale(1 1) rotate(0) translate(7.992 187.992)">
<title>G</title>
<polygon fill="#000000" stroke="none" points="-7.992,7.992 -7.992,-187.992 218.516,-187.992 218.516,7.992 -7.992,7.992"/>
<!-- ../lib/utils -->
<g id="node1" class="node"><title>../lib/utils</title>
<ellipse fill="none" stroke="#cfffac" cx="163.1" cy="-18" rx="47.3477" ry="18"/>
<text text-anchor="middle" x="163.1" y="-14.8493" font-family="Arial" font-size="14.00" fill="#cfffac">../lib/utils</text>
</g>
<!-- constants -->
<g id="node2" class="node"><title>constants</title>
<ellipse fill="none" stroke="#cfffac" cx="51.0999" cy="-90" rx="51.2" ry="18"/>
<text text-anchor="middle" x="51.0999" y="-86.8493" font-family="Arial" font-size="14.00" fill="#cfffac">constants</text>
</g>
<!-- index -->
<g id="node3" class="node"><title>index</title>
<ellipse fill="none" stroke="#c6c5fe" cx="157.1" cy="-162" rx="33.0903" ry="18"/>
<text text-anchor="middle" x="157.1" y="-158.849" font-family="Arial" font-size="14.00" fill="#c6c5fe">index</text>
</g>
<!-- index&#45;&gt;constants -->
<g id="edge1" class="edge"><title>index&#45;&gt;constants</title>
<path fill="none" stroke="#757575" d="M136.662,-147.503C121.395,-137.421 100.243,-123.453 82.7902,-111.928"/>
<polygon fill="#757575" stroke="#757575" points="84.3247,-108.747 74.0513,-106.157 80.4673,-114.588 84.3247,-108.747"/>
</g>
<!-- reducer -->
<g id="node4" class="node"><title>reducer</title>
<ellipse fill="none" stroke="#c6c5fe" cx="163.1" cy="-90" rx="42.9353" ry="18"/>
<text text-anchor="middle" x="163.1" y="-86.8493" font-family="Arial" font-size="14.00" fill="#c6c5fe">reducer</text>
</g>
<!-- index&#45;&gt;reducer -->
<g id="edge2" class="edge"><title>index&#45;&gt;reducer</title>
<path fill="none" stroke="#757575" d="M158.583,-143.697C159.244,-135.983 160.039,-126.712 160.776,-118.112"/>
<polygon fill="#757575" stroke="#757575" points="164.267,-118.367 161.634,-108.104 157.292,-117.769 164.267,-118.367"/>
</g>
<!-- reducer&#45;&gt;../lib/utils -->
<g id="edge3" class="edge"><title>reducer&#45;&gt;../lib/utils</title>
<path fill="none" stroke="#757575" d="M163.1,-71.6966C163.1,-63.9827 163.1,-54.7125 163.1,-46.1124"/>
<polygon fill="#757575" stroke="#757575" points="166.6,-46.1043 163.1,-36.1043 159.6,-46.1044 166.6,-46.1043"/>
</g>
<!-- selectors -->
<g id="node5" class="node"><title>selectors</title>
<ellipse fill="none" stroke="#c6c5fe" cx="51.0999" cy="-162" rx="48.4456" ry="18"/>
<text text-anchor="middle" x="51.0999" y="-158.849" font-family="Arial" font-size="14.00" fill="#c6c5fe">selectors</text>
</g>
<!-- selectors&#45;&gt;constants -->
<g id="edge4" class="edge"><title>selectors&#45;&gt;constants</title>
<path fill="none" stroke="#757575" d="M51.0999,-143.697C51.0999,-135.983 51.0999,-126.712 51.0999,-118.112"/>
<polygon fill="#757575" stroke="#757575" points="54.6,-118.104 51.0999,-108.104 47.6,-118.104 54.6,-118.104"/>
</g>
</g>
</svg>
